{
    "asset" : {
        "generator" : "Khronos glTF Blender I/O v0.9.36",
        "version" : "2.0"
    },
    "scene" : 0,
    "scenes" : [
        {
            "name" : "TestScene",
            "nodes" : [
                2,
                3,
                4
            ]
        }
    ],
    "nodes" : [
        {
            "mesh" : 0,
            "name" : "Cube",
            "scale" : [
                3.9009814262390137,
                0.6554720997810364,
                2.8900039196014404
            ],
            "translation" : [
                0,
                2.5599849224090576,
                -2.2789740562438965
            ]
        },
        {
            "mesh" : 0,
            "name" : "Cube2",
            "scale" : [
                0.6554720997810364,
                0.6554720997810364,
                2.8900039196014404
            ],
            "translation" : [
                -2.357983112335205,
                0.8452871441841125,
                0.20557796955108643
            ]
        },
        {
            "children" : [
                0,
                1
            ],
            "mesh" : 1,
            "name" : "Chair",
            "translation" : [
                0,
                0,
                1.699122667312622
            ]
        },
        {
            "mesh" : 2,
            "name" : "Simple",
            "translation" : [
                -0.27083301544189453,
                2.742677688598633,
                3.040687322616577
            ]
        },
        {
            "mesh" : 3,
            "name" : "Cube.001",
            "translation" : [
                3.5199201107025146,
                -0.04981231689453125,
                2.6747210025787354
            ]
        }
    ],
    "materials" : [
        {
            "name" : "Material1",
            "pbrMetallicRoughness" : {
                "baseColorFactor" : [
                    0.16077874600887299,
                    0.8000000715255737,
                    0.13161788880825043,
                    1
                ],
                "metallicFactor" : 0,
                "roughnessFactor" : 0.5
            }
        },
        {
            "doubleSided" : true,
            "name" : "Material0",
            "pbrMetallicRoughness" : {
                "baseColorFactor" : [
                    0.8000000715255737,
                    0.11278471350669861,
                    0.21241840720176697,
                    1
                ],
                "metallicFactor" : 0,
                "roughnessFactor" : 0.4000000059604645
            }
        }
    ],
    "meshes" : [
        {
            "name" : "Cube",
            "primitives" : [
                {
                    "attributes" : {
                        "POSITION" : 0,
                        "NORMAL" : 1,
                        "TEXCOORD_0" : 2
                    },
                    "indices" : 3,
                    "material" : 0
                },
                {
                    "attributes" : {
                        "POSITION" : 4,
                        "NORMAL" : 5,
                        "TEXCOORD_0" : 6
                    },
                    "indices" : 7,
                    "material" : 1
                }
            ]
        },
        {
            "name" : "Mesh",
            "primitives" : [
                {
                    "attributes" : {
                        "POSITION" : 8,
                        "NORMAL" : 9,
                        "TEXCOORD_0" : 10
                    },
                    "indices" : 11,
                    "material" : 1
                }
            ]
        },
        {
            "name" : "Plane",
            "primitives" : [
                {
                    "attributes" : {
                        "POSITION" : 12,
                        "NORMAL" : 13,
                        "TEXCOORD_0" : 14
                    },
                    "indices" : 15,
                    "material" : 0
                }
            ]
        },
        {
            "name" : "Cube.001",
            "primitives" : [
                {
                    "attributes" : {
                        "POSITION" : 16,
                        "NORMAL" : 17,
                        "TEXCOORD_0" : 18
                    },
                    "indices" : 19
                }
            ]
        }
    ],
    "accessors" : [
        {
            "bufferView" : 0,
            "componentType" : 5126,
            "count" : 23,
            "max" : [
                1,
                1,
                0.7551191449165344
            ],
            "min" : [
                -1,
                -1,
                0.35511910915374756
            ],
            "type" : "VEC3"
        },
        {
            "bufferView" : 1,
            "componentType" : 5126,
            "count" : 23,
            "type" : "VEC3"
        },
        {
            "bufferView" : 2,
            "componentType" : 5126,
            "count" : 23,
            "type" : "VEC2"
        },
        {
            "bufferView" : 3,
            "componentType" : 5123,
            "count" : 33,
            "type" : "SCALAR"
        },
        {
            "bufferView" : 4,
            "componentType" : 5126,
            "count" : 27,
            "max" : [
                1,
                1,
                0.9137071371078491
            ],
            "min" : [
                -1,
                -1,
                0.35511910915374756
            ],
            "type" : "VEC3"
        },
        {
            "bufferView" : 5,
            "componentType" : 5126,
            "count" : 27,
            "type" : "VEC3"
        },
        {
            "bufferView" : 6,
            "componentType" : 5126,
            "count" : 27,
            "type" : "VEC2"
        },
        {
            "bufferView" : 7,
            "componentType" : 5123,
            "count" : 39,
            "type" : "SCALAR"
        },
        {
            "bufferView" : 8,
            "componentType" : 5126,
            "count" : 206,
            "max" : [
                0.9693151712417603,
                1,
                2.4813156127929688
            ],
            "min" : [
                -1.0306849479675293,
                -1.0596122741699219,
                -1.5134449005126953
            ],
            "type" : "VEC3"
        },
        {
            "bufferView" : 9,
            "componentType" : 5126,
            "count" : 206,
            "type" : "VEC3"
        },
        {
            "bufferView" : 10,
            "componentType" : 5126,
            "count" : 206,
            "type" : "VEC2"
        },
        {
            "bufferView" : 11,
            "componentType" : 5123,
            "count" : 324,
            "type" : "SCALAR"
        },
        {
            "bufferView" : 12,
            "componentType" : 5126,
            "count" : 4,
            "max" : [
                1,
                1,
                0
            ],
            "min" : [
                -1,
                -1,
                0
            ],
            "type" : "VEC3"
        },
        {
            "bufferView" : 13,
            "componentType" : 5126,
            "count" : 4,
            "type" : "VEC3"
        },
        {
            "bufferView" : 14,
            "componentType" : 5126,
            "count" : 4,
            "type" : "VEC2"
        },
        {
            "bufferView" : 15,
            "componentType" : 5123,
            "count" : 6,
            "type" : "SCALAR"
        },
        {
            "bufferView" : 16,
            "componentType" : 5126,
            "count" : 24,
            "max" : [
                1,
                1,
                1
            ],
            "min" : [
                -1,
                -1,
                -1
            ],
            "type" : "VEC3"
        },
        {
            "bufferView" : 17,
            "componentType" : 5126,
            "count" : 24,
            "type" : "VEC3"
        },
        {
            "bufferView" : 18,
            "componentType" : 5126,
            "count" : 24,
            "type" : "VEC2"
        },
        {
            "bufferView" : 19,
            "componentType" : 5123,
            "count" : 36,
            "type" : "SCALAR"
        }
    ],
    "bufferViews" : [
        {
            "buffer" : 0,
            "byteLength" : 276,
            "byteOffset" : 0
        },
        {
            "buffer" : 0,
            "byteLength" : 276,
            "byteOffset" : 276
        },
        {
            "buffer" : 0,
            "byteLength" : 184,
            "byteOffset" : 552
        },
        {
            "buffer" : 0,
            "byteLength" : 66,
            "byteOffset" : 736
        },
        {
            "buffer" : 0,
            "byteLength" : 324,
            "byteOffset" : 804
        },
        {
            "buffer" : 0,
            "byteLength" : 324,
            "byteOffset" : 1128
        },
        {
            "buffer" : 0,
            "byteLength" : 216,
            "byteOffset" : 1452
        },
        {
            "buffer" : 0,
            "byteLength" : 78,
            "byteOffset" : 1668
        },
        {
            "buffer" : 0,
            "byteLength" : 2472,
            "byteOffset" : 1748
        },
        {
            "buffer" : 0,
            "byteLength" : 2472,
            "byteOffset" : 4220
        },
        {
            "buffer" : 0,
            "byteLength" : 1648,
            "byteOffset" : 6692
        },
        {
            "buffer" : 0,
            "byteLength" : 648,
            "byteOffset" : 8340
        },
        {
            "buffer" : 0,
            "byteLength" : 48,
            "byteOffset" : 8988
        },
        {
            "buffer" : 0,
            "byteLength" : 48,
            "byteOffset" : 9036
        },
        {
            "buffer" : 0,
            "byteLength" : 32,
            "byteOffset" : 9084
        },
        {
            "buffer" : 0,
            "byteLength" : 12,
            "byteOffset" : 9116
        },
        {
            "buffer" : 0,
            "byteLength" : 288,
            "byteOffset" : 9128
        },
        {
            "buffer" : 0,
            "byteLength" : 288,
            "byteOffset" : 9416
        },
        {
            "buffer" : 0,
            "byteLength" : 192,
            "byteOffset" : 9704
        },
        {
            "buffer" : 0,
            "byteLength" : 72,
            "byteOffset" : 9896
        }
    ],
    "buffers" : [
        {
            "byteLength" : 9968,
            "uri" : "data:application/octet-stream;base64,"
        }
    ]
}
